<?xml version="1.0" encoding="UTF-8" standalone="no"?>
<!DOCTYPE svg PUBLIC "-//W3C//DTD SVG 1.1//EN" "http://www.w3.org/Graphics/SVG/1.1/DTD/svg11.dtd">
<svg width="100%" height="100%" viewBox="0 0 2365 1132" version="1.1" xmlns="http://www.w3.org/2000/svg" xmlns:xlink="http://www.w3.org/1999/xlink" xml:space="preserve" xmlns:serif="http://www.serif.com/" style="fill-rule:evenodd;clip-rule:evenodd;stroke-linejoin:round;stroke-miterlimit:2;">
    <g transform="matrix(1,0,0,1,-1009.077849,-1070.520131)">
        <g transform="matrix(2.30957,0,0,2.30957,1009.077849,1070.520131)">
            <path d="M387.5,0L388.5,0C390.542,5.164 389.677,5.339 388.583,7.556C388.262,8.206 378.801,12.745 376.423,13.036C374.804,13.235 366.851,18.571 365.387,19.019C362.662,19.851 363.017,20.33 360.747,21.902C359.559,22.724 347.555,31.033 345.725,31.928C341.672,33.909 338.55,38.164 335.559,39.595C331.667,41.457 320.968,51.702 319.381,52.025C316.649,52.582 318.014,54.35 315.583,55.627C309.73,58.702 307.904,61.957 306.572,62.615C304.416,63.68 296.949,70.412 296.563,70.599C292.821,72.415 290.58,76.64 288.572,77.615C284.699,79.498 283.649,82.604 281.569,83.61C277.729,85.468 276.64,88.596 274.562,89.599C271.625,91.016 261.546,102.171 260.553,102.599C257.9,103.742 258.262,104.161 256.229,106.229C242.076,120.622 242.595,121.09 241.236,122.195C237.585,125.161 238.572,125.981 235.232,129.234C233.175,131.237 233.023,132.476 228.19,138.233C219.208,148.934 219.548,152.256 215.788,154.866C212.794,156.945 213.039,160.202 212.197,161.246C206.201,168.682 208.162,169.898 202.178,177.24C198.772,181.418 201.072,182.61 197.724,186.672C195.597,189.253 188.071,209.65 187.795,211.55C187.217,215.533 180.223,239.16 183.591,252.467C184.635,256.593 184.797,256.485 186.036,260.604C189.57,272.353 194.658,271.334 200.647,276.303C204.346,279.372 217.911,278.243 220.473,277.431C228.292,274.952 227.934,274.186 228.608,273.973C235.378,271.843 235.028,271.154 235.61,270.977C245.023,268.104 276.142,243.973 277.71,241.633C279.964,238.267 281.436,239.905 283.726,236.646C286.191,233.137 286.844,233.842 289.781,230.768C291.698,228.761 290.471,219.342 295.422,204.47C297.427,198.446 296.437,198.272 297.36,195.444C297.54,194.894 299.393,189.215 299.741,188.619C304.266,180.868 304.174,175.591 304.732,174.615C309.873,165.634 312.443,154.952 315.826,150.761C319.155,146.639 316.502,145.013 320.149,142.125C322.525,140.245 321.378,137.254 328.771,129.773C340.763,117.64 348.588,128.283 348.876,130.441C350.166,140.096 348.235,149.89 347.908,151.549C345.415,164.191 342.184,168.095 341.885,170.556C341.564,173.189 341.355,173.047 340.283,175.391C336.346,184.006 336.035,183.772 335.888,184.573C334.708,191.005 329.892,192.634 328.869,197.603C328.657,198.634 328.387,198.441 321.283,208.367C313.763,218.874 311.2,220.444 310.254,222.371C308.165,226.624 304.797,226.328 303.982,228.746C302.372,233.526 298.666,231.772 298.905,236.498C299.083,240.027 299.674,239.901 299.865,243.489C300.004,246.09 304.702,259.499 306.271,261.641C325.963,288.516 357.006,271.38 358.445,271.128C366.822,269.657 365.899,267.224 373.608,264.973C381.244,262.744 394.318,252.243 395.617,251.973C399.271,251.214 401.087,246.505 403.618,245.974C407.516,245.156 406.341,242.459 408.415,241.37C414.305,238.275 411.415,236.149 414.74,229.622C415.191,228.737 420,219.299 420.112,218.434C421.237,209.808 425.104,211.032 426.157,202.44C426.59,198.914 432.518,191.541 433.15,186.438C433.795,181.225 437.171,182.684 439.39,174.453C440.135,171.689 450.358,158.648 455.452,158.181C468.079,157.023 463.322,172.427 462.838,177.55C462.613,179.934 458.816,186.848 459,189.487C459.263,193.232 454.015,199.06 452.249,204.393C449.756,211.917 446.661,211.383 446.022,214.338C445.411,217.162 440.017,222.308 439.272,223.357C434.082,230.67 433.179,229.992 432.991,230.745C432.435,232.978 431.756,232.551 420.686,243.688C414.572,249.839 413.207,260.296 411.977,262.714C404.929,276.574 406.929,277.226 406.267,278.384C402.826,284.399 400.929,292.291 400.626,293.55C399.589,297.867 394.733,304.843 394.011,311.486C393.744,311.758 392.561,311.429 391.897,313.634C391.744,314.144 391.681,314.038 391.561,314.512C390.973,316.826 392.436,316.419 394.513,315.281C396.801,314.614 405.696,312.567 409.449,311.369C415.298,309.502 415.578,311.204 421.475,309.433C429.392,307.056 429.564,307.962 437.454,305.382C443.975,303.249 445.695,304.891 456.467,301.414C466.688,298.115 480.906,297.023 494.45,292.374C500.433,290.321 500.673,291.874 505.475,290.431C511.449,288.636 511.563,289.289 517.464,287.406C531.713,282.859 532.211,285.011 546.459,280.395C554.771,277.703 554.963,278.979 560.475,277.433C561.913,277.029 578.097,272.489 578.449,272.371C583.989,270.53 585.037,272.077 599.458,267.392C608.197,264.553 609.666,266.132 612.413,260.446C616.253,252.5 625.887,250.73 622.735,244.379C617.077,232.976 607.357,225.419 607.135,224.635C606.443,222.19 606.053,222.462 603.768,220.234C601.114,217.648 602.348,216.802 599.786,214.222C598.918,213.346 589.705,204.063 589.259,202.962C588.855,202.904 588.911,202.056 588.508,201.998C587.792,201.894 587.731,204.327 587.726,204.54C587.737,204.78 587.873,207.549 587.873,207.549C586.589,214.896 586.824,214.932 586.628,215.549C580.277,235.52 581.158,235.797 580.267,237.383C577.715,241.929 577.507,241.693 575.272,246.383C573.347,250.422 560.169,263.184 555.547,264.614C544.217,268.12 543.935,269.71 532.616,266C520.807,262.13 523.527,258.805 519.413,252.61L519.758,251.5C519.548,251.396 519.71,250.95 519.5,250.846C518.314,250.257 518.622,251.105 517.744,252.681C517.275,253.921 516.673,256.669 516.204,257.251C505.982,269.928 505.846,269.994 504.57,270.611C501.748,271.978 496.262,277.716 495.385,278.04C488.566,280.558 489.532,282.983 482.529,283.863C476.807,284.583 477.009,286.526 461.457,285.79C460.408,285.74 457.308,283.986 457.3,283.983C451.977,282.269 453.371,280.122 448.416,277.627C445.775,276.297 444.58,265.379 445.433,262.476C446.552,258.669 445.611,254.406 447.807,251.749C452.636,245.907 450.905,244.691 456.33,239.333C460.516,235.197 459.574,233.621 462.622,232.978C465.386,232.395 464.034,230.62 466.428,229.389C467.273,228.954 480.914,220.517 481.451,220.382C485.777,219.296 485.379,218.43 489.611,216.986C496.919,214.492 497.431,212.493 510.585,213.178C512.893,213.298 514.47,220.057 509.554,220.792C499.603,222.281 500.051,223.714 490.398,226.251C486.051,227.393 465.728,241.007 464.993,242.742C464.107,244.833 464.278,244.972 462.363,246.293C458.429,249.006 454.69,259.177 454.24,260.399C451.062,269.045 457.867,273.502 458.672,274.322C468.607,284.439 487.806,273.818 499.303,262.303C511.563,250.025 509.345,248.32 511.295,246.314C513.554,243.989 513.131,242.614 513.811,241.749C518.921,235.243 515.61,233.833 519.395,226.432C519.67,225.893 531.635,220.449 526.849,234.581C523.273,245.142 529.275,251.67 529.615,252.441C530.502,254.452 530.494,254.402 532.241,255.816C538.217,260.653 545.227,258.092 546.514,257.989C553.044,257.462 555.72,252.514 557.624,251.967C559.766,251.352 560.754,250.083 565.826,243.766C571.271,236.985 569.855,235.124 571.813,232.753C575.715,228.025 578.004,211.34 578.175,208.458C578.209,207.887 579.07,205.745 579.1,205.461C579.602,200.801 580.002,200.981 581.418,196.456C582.358,193.452 591.428,193.149 593.662,195.32C597.847,199.39 599.326,197.999 601.92,203.248C602.452,204.326 606.117,207.41 606.616,208.428C609.844,215.011 611.772,213.597 613.606,217.433C613.973,218.2 614.773,219.873 620.384,225.61C631.007,236.47 630.346,242.747 634.119,238.193C639.13,232.144 639.719,232.781 640.097,232.221C640.393,231.784 643.686,226.917 643.813,226.767C645.892,224.306 645.47,224.137 647.019,221.265C650.747,214.35 650.422,214.216 650.769,213.631C652.667,210.432 651.623,210.144 652.426,207.473C652.633,206.781 653.853,195.225 655.392,190.457C661.449,171.696 680.104,186.931 680.38,186.984C684.807,187.835 685.452,191.948 687.746,193.086C694.258,196.318 692.826,199.279 695.74,200.007C698.041,200.583 697.623,201.133 699.234,202.77C700.728,204.287 701.017,203.789 702.237,204.807C713.911,214.538 714.746,213.378 715.691,214.295C720.652,219.105 721.741,216.628 726.762,211.774C739.009,199.933 743.601,193.56 746.749,183.592C747.49,181.245 741.954,170.739 743.353,166.443C744.626,162.536 744.324,161.636 748.463,161.204C759.313,160.073 754.082,178.317 757.269,182.64C761.24,188.025 761.562,187.747 761.895,188.222C766.488,194.776 773.456,194.115 773.551,194.132C775.998,194.575 775.945,194.338 778.447,194.134C786.133,193.505 785.953,189.631 792.32,183.323C805.208,170.553 807.681,190.107 807.881,192.438C808.151,195.593 813.143,200.649 813.625,202.446C816.774,214.184 836.552,200.698 843.448,200.15C857.841,199.007 863.468,188.826 866.432,187.392C869.712,185.804 879.171,174.811 880.211,174.09C886.121,169.994 899.875,146.588 914.552,150.375C916.391,150.849 920.102,155.981 920.599,157.459C924.46,168.944 922.623,170.107 921.804,174.39C921.008,176.064 920.843,176.071 920.947,176.192C921.001,176.256 922.037,176.439 922.475,176.352C925.66,175.72 924.921,174.452 925.513,173.993C932.53,173.227 934.365,168.867 942.567,167.968C944.556,167.751 953.971,162.98 956.453,162.382C967.488,159.722 966.711,157.652 977.607,154.761C981.184,153.811 985.396,149.647 991.57,148.971C992.265,148.894 998.213,146.689 1001.75,143.808C1003.527,142.36 1005.908,142.734 1008.346,140.324C1013.39,135.34 1019.092,146.747 1011.399,149.267C1007.578,150.518 1007.925,152.554 1004.375,154.259C997.746,157.441 989.439,167.053 985.735,167.983C983.588,168.523 984.03,171.407 978.367,174.246C975.248,175.81 972.195,181.936 966.434,179.623C965.236,179.142 963.601,174.952 966.771,171.77C968.026,170.511 968.013,170.622 969.468,169.469C969.715,169.352 969.961,169.235 970.207,169.118C972.819,168.05 972.84,168.232 974.218,167.237C974.634,167.028 974.1,166.713 974.515,166.505C975.047,166.238 975.026,166.774 975.557,166.565C976.827,166.067 980.006,163.67 980.375,163.393C983.455,161.071 980.645,160.962 980.577,160.99C976.238,162.813 976.147,162.583 972.523,165.6C971.14,166.334 963.953,168.793 963.692,168.92C951.001,175.126 938.894,177.959 936.674,179.735C933.41,182.347 931.998,179.852 929.642,181.704C927.781,183.167 923.951,184.301 921.397,185.297C917.116,186.967 918.486,197.51 913.615,207.555C910.812,213.337 910.617,217.78 910.274,218.387C906.256,225.491 906.617,225.686 906.17,226.236C903.52,229.501 905.069,230.169 903.257,233.379C898.97,240.972 898.56,240.686 898.267,241.381C897.224,243.854 898.029,244.239 894.893,247.627C894.648,247.833 889.338,252.311 893.484,251.369C893.967,251.26 896.255,249.367 896.484,249.178C899.1,248.137 899.093,248.165 899.309,248.054C905.368,244.927 924.621,245.655 932.547,247.158C933.752,247.387 943.616,249.257 947.527,250.426C956.68,253.163 977.795,252.524 984.449,251.128C984.969,251.019 998.982,245.229 999.649,244.744C1011.217,236.334 1011.839,235.705 1012.766,234.767C1017.982,229.486 1018.935,231.562 1023.999,232.5L1023.999,237.5C1016.872,242.175 1018.113,243.745 1010.74,247.924C1007.09,249.993 1007.714,251.077 1003.695,251.982C1001.535,252.469 996.976,257.499 990.527,257.866C989.703,257.913 989.802,258.348 980.435,260.02C977.758,260.497 962.477,263.224 946.477,258.566C941.589,257.143 941.312,258.999 936.589,257.27C935.407,256.837 927.187,255.824 925.593,255.253C925.249,255.13 910.097,253.965 904.577,255.85C898.604,257.89 894.369,258.242 888.692,263.707C886.56,265.759 885.788,264.523 883.663,266.669C877.228,273.169 877.303,276.31 874.567,277.603C870.342,279.6 872.275,281.651 868.366,284.287C864.436,286.937 865.961,288.605 861.764,290.91C857.988,292.984 859.945,294.905 856.372,297.296C852.204,300.086 853.524,301.406 849.361,304.28C845.845,306.708 846.935,307.826 843.365,310.286C838.794,313.435 839.817,314.765 834.73,316.982C830.997,318.608 831.075,319.574 828.46,318.575C828.192,318.473 824.147,313.325 829.772,307.77C830.539,307.014 830.12,306.65 838.782,297.77C842.069,294.4 841.293,293.677 845.206,291.1C845.864,290.666 845.468,290.289 851.779,283.767C854.721,280.726 854.15,280.202 857.643,277.717C859.423,276.45 858.856,276.06 860.291,274.3C861.896,274.953 861.915,275.11 862.019,275.003C862.246,274.768 861.801,274.248 862.037,274.022C862.278,273.79 862.79,274.244 863.04,274.022C863.276,273.812 862.876,273.295 863.103,273.076C863.332,272.854 863.762,273.152 864.06,273.036C864.06,273.036 865.133,271.195 865.226,271.035C871.63,262.405 875.086,265.216 879.398,255.447C880.344,253.305 884.245,250.932 884.986,247.621C885.003,247.543 890.205,238.363 890.788,237.766C892.311,236.206 891.661,233.782 897.738,224.617C898.923,222.83 897.065,222.089 899.712,218.627C902.192,215.383 907.164,196.869 909.531,191.509C911.022,188.133 908.653,189.326 908.485,189.41C899.271,194.051 891.524,193.618 885.377,197.251C882.064,199.21 875.441,199.805 874.553,199.884C873.485,199.98 867.961,202.03 867.396,202.24C853.926,207.238 850.126,212.218 848.557,212.633C843.435,213.987 843.312,213.765 840.248,216.181C838.78,217.338 838.605,216.706 832.553,218.636C829.612,219.574 829.527,218.675 826.559,219.653C821.798,221.222 821.598,216.169 813.585,218.871C808.171,220.697 807.917,219.438 802.53,221.576C791.514,225.947 791.053,224.261 771.584,230.862C771.25,230.976 767.627,232.204 767.413,232.285C766.182,232.75 765.904,231.738 751.548,236.621C745.724,238.602 741.172,237.212 744.224,242.637C748.414,250.087 743.821,263.128 741.404,265.41C739.883,266.848 740.111,267.011 738.362,268.277C734.726,270.908 734.592,270.517 730.36,272.219C725.159,274.311 724.859,272.947 719.537,274.602C714.15,276.277 699.247,270.236 698.405,267.551C697.069,263.287 695.183,263.932 695.139,259.519C695.083,253.896 695.753,253.627 694.552,252.449C692.734,250.664 689.96,253.821 679.552,255.895C677.885,256.227 675.67,257.818 674.553,257.872C660.996,258.525 653.231,264.587 647.552,264.864C638.248,265.319 638.752,267.627 629.551,268.899C626.22,269.359 619.8,279.016 611.284,274.945C607.32,273.05 599.006,277.755 596.552,277.869C585.295,278.391 575.565,283.647 571.551,283.855C558.646,284.524 559.308,287.468 546.55,289.929C535.439,292.072 535.291,291.179 524.579,294.852C516.233,297.714 515.722,295.468 507.528,298.573C506.675,298.896 506.515,298.307 496.548,301.624C492.545,302.957 480.478,304.154 469.541,307.609C460.233,310.549 459.847,308.695 450.527,311.573C442.134,314.165 441.962,313.291 433.584,315.877C428.413,317.474 427.221,316.315 417.547,318.874C402.547,322.842 402.564,322.873 402.552,322.874C401.357,322.918 388.246,323.398 388.017,326.372C387.342,335.158 384.088,334.177 380.619,348.547C380.417,349.385 380.197,349.296 376.578,358.533C374.057,364.965 373.857,368.171 370.229,375.364C368.161,379.462 365.798,390.749 362.699,394.641C360.916,396.88 363.042,397.771 360.729,400.67C360.196,401.339 360.637,401.56 356.222,410.359C353.759,415.267 355.586,416.012 352.279,420.367C350.04,423.315 347.772,432.2 342.271,440.383C341.346,441.758 342.322,442.224 339.271,446.361C335.401,451.609 337.283,452.828 330.206,460.226C327.684,462.863 328.867,463.667 326.232,466.234C321.392,470.95 321.874,471.942 318.558,473.588C316.427,474.647 315.013,477.545 312.567,477.861C306.68,478.621 304.111,484.356 294.555,484.873C293.973,484.904 294.162,485.605 287.547,486.888C284.245,487.528 284.537,488.623 279.544,488.884C279.358,488.893 279.393,488.966 277.5,489.999C276.831,489.856 277.127,488.373 276.458,488.23C273.8,487.662 273.877,489.908 242.478,488.76C227.718,488.22 227.675,489.013 226.454,488.623C223.47,487.668 223.372,488.545 220.458,487.611C210.542,484.432 202.803,484.769 202.44,484.653C195.464,482.419 195.305,483.187 188.426,480.829C182.246,478.711 165.65,476.014 162.628,474.24C162.183,473.978 159.381,472.333 156.569,472.026C151.324,471.453 151.576,470.681 146.61,469.017C122.351,460.887 122.59,460.247 120.472,459.569C100.96,453.325 101.337,452.222 99.571,452.025C92.455,451.231 89.62,447.835 83.602,446.244C79.453,445.147 79.678,444.676 75.602,443.256C69.253,441.044 69.84,439.501 65.572,439.025C57.501,438.124 55.228,433.53 50.57,433.03C42.521,432.167 42.997,428.599 37.409,426.82C34.137,425.778 34.335,425.518 31.283,423.938C24.177,420.259 24.265,420.084 23.575,420.042C19.419,419.793 20.481,417.731 15.273,414.925C6.646,410.277 4.065,403.218 -0,401.5L0,400.5C0.313,399.859 1.514,400.026 1.826,399.385C2.106,398.811 1.556,398.136 1.46,397.505C1.025,394.665 1.671,394.735 1.571,394.518C1.309,393.952 0.261,394.067 0,393.5L0,392.5C0.245,392.235 0.806,392.507 1.052,392.242C1.448,391.815 0.968,391.49 5.312,386.338C10.793,379.838 14.78,381.724 21.627,377.757C25.111,375.739 30.665,375.218 31.477,375.142C34.367,374.871 45.758,370.682 51.562,369.958C58.054,369.149 57.894,368.385 64.48,368.147C66.924,368.059 66.746,367.185 94.45,362.127C96.928,361.674 99.168,362.988 104.474,361.428C104.888,361.306 113.03,360.46 116.468,359.411C117.551,359.08 117.624,359.6 130.454,357.158C150.658,353.313 150.862,355.174 152.596,354.765C155.192,354.153 155.234,354.652 185.45,349.126C186.643,348.908 186.749,350.493 200.566,347.983C213.406,345.65 213.381,345.729 214.46,345.392C215.002,345.223 214.952,345.372 221.453,344.149C228.015,342.915 250.671,341.461 260.457,338.385C266.209,336.577 279.979,336.39 286.472,334.422C286.615,334.379 303.407,331.663 307.449,330.368C310.118,329.512 324.073,329.012 332.464,326.403C336.733,325.076 338.732,325.828 346.443,323.353C347.561,322.995 354.163,323.951 365.466,320.408C371.421,318.541 381.449,319.075 382.98,314.615C385.445,307.428 387.236,308.087 388.167,300.446C388.503,297.683 392.624,289.254 393.084,288.313C394.679,285.05 394.152,280.979 396.272,278.333C397.831,276.387 401.22,263.265 403.622,259.533C403.667,259.366 405.605,252.225 402.55,257.651C396.772,263.647 389.031,266.444 387.86,267.849C385.691,270.451 379.978,270.669 374.252,275.189C372.177,276.828 364.388,277.719 361.246,280.174C360.654,280.636 350.854,283.864 350.553,283.874C348.148,283.956 324.352,286.15 317.618,282.262C310.065,277.901 308.896,279.368 303.735,272.345C303.523,272.056 298.093,267.217 297.383,264.55C294.989,255.548 291.625,255 291.259,244.538C292.597,241.896 291.717,239.072 289.642,241.675C288.875,242.635 288.869,242.793 288.864,242.909C288.841,243.467 289.588,242.992 289.563,243.603C289.011,244.248 288.744,243.913 281.687,250.698C279.828,252.485 278.747,251.206 277.588,253.561C277.112,254.529 276.815,254.142 267.238,262.195C262.253,266.386 261.372,265.126 256.682,269.697C255.48,270.869 249.864,272.587 246.679,275.696C245.982,276.376 245.707,275.88 235.704,280.94C228.022,284.825 227.559,283.447 219.536,286.597C217.976,287.209 203.881,287.14 199.315,284.914C196.184,283.388 195.718,284.588 192.63,282.284C190.258,280.514 189.753,281.233 184.761,276.239C181.091,272.568 181.767,272.144 180.08,268.727C179.857,268.275 179.684,268.402 176.744,263.38C176.544,263.039 170.552,243.939 176.736,219.592C176.968,218.681 179.076,210.382 180.076,208.323C181.539,205.31 179.575,203.797 184.761,193.632C188.051,187.184 186.471,186.479 190.735,180.64C193.188,177.28 191.96,173.734 198.302,166.341C199.024,165.5 198.181,164.989 205.743,154.65C207.74,151.921 206.383,151 209.165,149.074C210.288,148.297 209.128,147.39 219.316,135.346C221.836,132.366 220.898,131.735 224.782,127.767C227.318,125.177 226.577,124.582 229.325,122.31C231.288,120.687 230.099,119.583 250.768,98.769C260.046,89.427 269.318,82.791 271.098,80.212C273.179,77.198 275.405,79.238 278.372,73.416C278.787,72.601 279.683,73.646 287.331,66.32C289.015,64.707 289.448,65.237 294.316,60.312C299.171,55.402 300.32,56.894 311.311,46.299C313.53,44.161 314.725,45.679 317.12,42.216C319.607,38.62 321.988,40.354 323.41,37.437C324.947,34.285 328.527,34.852 336.316,27.303C338.449,25.236 339.244,26.472 341.347,24.338C347.646,17.946 348.72,19.483 355.755,13.804C356.88,12.895 358.996,13.599 362.34,10.322C364.858,7.853 376.175,3.691 381.23,1.023C381.711,1.105 381.834,1.924 382.314,2.006C382.569,2.049 382.474,1.487 385.5,1.509C387.327,1.523 387.419,0.061 387.5,0L231.49,480C241.957,480.782 259.763,483.787 267.464,481.398C267.766,481.304 274.921,481.363 284.445,478.36C286.445,477.73 288.483,479.118 292.636,476.779C295.46,475.187 305.56,472.888 311.312,467.3C314.463,464.239 315.841,465.624 317.734,461.622C319.504,457.877 321.878,459.64 322.985,455.623C323.845,452.504 327.186,450.048 328.085,448.274C328.359,447.732 330.25,443.997 331.345,441.421C333.137,437.206 334.68,438.057 335.985,433.612C337.213,429.43 340.261,425.298 340.743,424.645C342.805,421.849 342.135,418.316 346.731,411.616C347.962,409.822 348.536,403.787 351.282,400.341C352.446,398.88 351.093,397.387 354.302,393.359C355.216,392.211 353.663,391.599 361.075,376.307C361.958,374.484 363.187,365.529 366.743,360.642C369.038,357.489 366.699,356.506 370.752,348.627C375.69,339.027 373.768,336.571 378.154,329.36C380.977,324.721 375.651,327.817 375.542,327.832C361.894,329.724 361.68,328.478 348.538,332.601C347.605,332.893 347.573,332.707 336.546,334.917C332.048,335.818 332.137,335.831 327.514,335.847C326.746,335.85 315.535,337.698 309.545,339.618C309.151,339.745 301.262,340.808 300.54,340.905C300.261,340.943 298.084,341.85 297.55,341.867C295.934,341.919 285.187,342.263 277.529,344.58C276.519,344.886 276.466,344.539 264.54,346.904C257.558,348.289 257.666,348.819 250.512,348.842C249.303,348.846 249.391,349.395 235.541,350.903C234.652,351 234.78,351.281 224.539,352.899C222.918,353.155 223.157,353.772 221.548,353.859C219.872,353.949 219.841,353.248 215.55,354.632C213.501,355.293 209.727,354.055 204.525,355.572C201.568,356.435 201.509,355.684 198.528,356.577C195.607,357.451 195.539,356.661 192.533,357.59C189.606,358.495 189.529,357.667 186.54,358.608C183.607,359.533 183.523,358.672 180.548,359.626C179.751,359.881 170.42,360.818 169.538,360.906C169.304,360.93 167.079,361.866 166.551,361.881C162.398,361.995 159.164,361.214 154.524,362.568C151.586,363.425 151.522,362.691 148.527,363.577C145.581,364.448 145.521,363.682 142.533,364.592C142.209,364.691 134.175,365.472 130.548,366.627C127.639,367.554 127.509,366.689 124.555,367.643C122.652,368.257 115.669,366.86 106.526,369.573C105.363,369.919 105.426,369.72 91.54,371.898C90.491,372.062 82.769,373.273 78.554,374.639C78.249,374.737 70.838,374.623 64.531,376.585C63.995,376.751 58.576,377.34 54.54,378.605C48.758,380.417 33.489,381.528 23.388,387.274C21.124,388.562 15.122,387.901 12.637,392.59C11.85,394.075 7.354,394.838 10.694,398.321C12.055,399.74 13.512,403.446 17.554,405.413C22.828,407.981 24.949,412.03 30.566,413.128C33.273,413.658 38.072,417.798 38.654,418.3C40.746,420.105 46.516,420.228 51.649,424.294C52.601,425.048 53.085,423.866 65.697,430.069C71.085,432.719 75.302,432.759 85.363,437.775C90.315,440.244 90.93,438.541 101.364,443.773C107.79,446.996 111.005,445.853 121.682,451.09C122.564,451.522 122.677,451.155 133.406,454.731C140.047,456.945 139.69,457.909 146.554,459.148C150.199,459.806 156.483,464.61 164.494,464.984C168.458,465.168 177.486,471.364 191.551,472.137C193.354,472.237 193.155,473.04 213.404,477.765C218.369,478.924 218.565,477.196 223.411,478.729C224.711,479.14 230.841,479.917 231.49,480L387.5,0L633.99,257.384C637.714,258.205 637.756,258.466 641.427,257.189C658.626,251.209 659.217,252.776 663.474,251.433C678.928,246.554 679.011,247.048 694.597,242.748C700.291,241.178 699.224,237.292 708.768,227.769C716.155,220.398 706.128,221.915 704.366,218.594C702.065,214.259 698.537,215.875 684.34,201.662C681.503,198.822 681.081,199.466 678.332,196.673C675.256,193.547 667.789,190.2 666.45,190.016C665.467,189.881 664.242,189.713 661.894,201.541C659.154,215.346 658.967,215.305 658.857,216.523C658.171,224.152 655.217,223.064 653.041,230.395C652.831,231.105 643.401,241.975 642.687,242.687C636.244,249.113 633.83,248.353 633.99,257.384L387.5,0L796.663,192.695C792.311,197.023 792.71,197.551 785.363,201.233C772.997,207.429 768.031,201.228 761.401,199.855C757.519,199.051 754.274,190.028 751.91,194.713C744.856,208.699 740.655,209.489 737.285,214.365C733.701,219.549 732.146,218.577 730.378,220.376C726.216,224.61 730.632,225.149 734.238,228.762C739.614,234.146 747.84,226.544 753.448,226.139C763.594,225.405 769.635,220.535 775.507,219.99C783.06,219.29 794.497,213.59 805.592,211.991C811.338,211.163 801.914,203.612 801.142,199.559C800.464,196.004 800.443,196.116 799.14,192.698C797.841,192.371 797.914,192.488 796.663,192.695L387.5,0L301.647,215.499C301.181,217.135 301.123,217.051 300.288,218.513C299.749,219.823 299.65,219.755 299.858,221.13C300.045,220.971 300.011,221.097 302.306,219.281C304.462,215.865 303.671,215.386 306.607,212.605C307.515,211.745 307.208,211.504 316.312,200.346C316.859,199.676 316.119,199.263 322.309,191.353C323.047,190.41 322.101,189.937 326.733,183.64C329.503,179.874 328.489,176.865 331.715,172.629C332.105,172.116 331.779,172.065 335.08,165.314C336.656,162.09 335.422,161.178 336.968,156.605C337.567,154.834 343.984,135.86 339.539,133.381C339.009,133.085 335.041,136.405 334.68,136.707C334.236,137.079 330.086,142.172 329.694,142.653C329.112,143.367 329.277,146.198 327.228,148.246C324.15,151.323 318.565,167.342 313.946,176.702C312.939,178.743 304.125,204.023 304.024,205.432C303.645,210.695 302.844,210.438 301.647,215.499L387.5,0L723.502,264.993C727.288,264.708 727.058,264.093 730.443,262.405C733.633,260.815 737.074,256.589 737.111,254.449C737.213,248.502 737.312,248.456 735.417,244.551C732.512,238.568 724.483,245.443 718.552,245.861C711.703,246.344 712.01,247.351 705.374,249.033C703.388,249.536 703.869,253.56 704.05,258.562C704.19,262.415 710.628,265.087 711.548,265.113C717.144,265.271 717.084,265.82 717.559,265.731C720.552,265.174 720.455,265.091 723.502,264.993L387.5,0L878.265,188.441C877.422,190.761 877.224,190.773 877.357,190.94C877.849,191.558 878.059,190.116 878.516,190.69C885.038,185.916 886.124,188.652 891.324,186.088C901.294,181.172 910.465,181.517 911.688,178.601C912.38,176.95 913.778,167.602 913.749,167.439C912.846,162.412 912.556,162.052 912.258,161.681C911.863,161.189 909.049,157.689 904.392,162.386C903.358,163.43 891.855,175.033 891.599,175.565C890.353,178.152 885.497,180.323 884.823,182.637C883.996,185.473 881.13,185.084 878.265,188.441L387.5,0L453.52,169.53C449.747,174.112 447.962,177.774 447.584,178.551C446.613,180.543 446.3,180.368 445.865,182.566C445.539,184.217 440.159,190.914 439.238,194.392C436.877,203.317 434.899,202.562 432.613,211.546C432.304,212.762 426.939,221.619 426.418,222.479C427.181,222.574 426.81,223.138 427.528,223.228C427.528,223.228 429.18,222.397 429.324,222.324C432.029,218.438 432.254,218.659 434.421,214.449C434.657,213.988 435.416,214.651 438.72,209.616C440.109,207.501 439.619,207.273 441.283,205.321C442.649,203.718 451.345,188.296 452.162,181.449C452.586,177.892 455.414,173.036 454.992,170.148C454.501,169.942 454.01,169.736 453.52,169.53L387.5,0L711.812,236.725C711.867,236.865 712.505,238.475 712.505,238.475C712.799,238.611 713.175,238.214 713.469,238.35C723.445,233.534 731.701,233.56 725.42,232.592C721.61,232.004 721.248,228.086 717.66,231.663C714.883,234.431 714.873,234.337 711.812,236.725L387.5,0L426.418,222.479C426.238,222.817 419.715,235.045 426.29,227.267C429.171,223.859 429.038,222.849 429.324,222.324C429.18,222.397 427.528,223.228 427.528,223.228C426.81,223.138 427.181,222.574 426.418,222.479L387.5,0L878.265,188.441C876.783,188.79 876.848,188.778 875.624,189.618C865.627,196.478 878.298,190.806 878.516,190.69C878.059,190.116 877.849,191.558 877.357,190.94C877.224,190.773 877.422,190.761 878.265,188.441L387.5,0L796.663,192.695C797.914,192.488 797.841,192.371 799.14,192.698C799.69,186.291 796.003,191.474 796.003,191.5C795.988,191.955 796.677,192.24 796.663,192.695L387.5,0L711.812,236.725C708.431,239.245 709.338,239.899 709.624,240.039C710.116,240.28 713.178,238.517 713.469,238.35C713.175,238.214 712.799,238.611 712.505,238.475C712.505,238.475 711.867,236.865 711.812,236.725L387.5,0L453.776,168.872C454.27,169.113 454.764,169.353 455.257,169.594C455.29,169.529 457.623,167.793 455.422,167.749C453.729,167.716 454.239,168.556 453.776,168.872L387.5,0Z" style="fill-opacity:0.87;"/>
            <path d="M952.498,246.008C946.672,245.499 943.212,246.766 943.125,243.565C942.991,238.639 941.582,236.711 946.463,236.181C949.15,235.889 949.472,238.099 953.296,236.055C957.275,233.93 957.407,234.365 961.446,232.401C962.416,231.929 978.418,219.638 981.395,213.435C982.158,211.846 987.745,205.198 987.971,203.58C988.068,202.88 988.25,201.573 991.381,195.422C992.373,193.473 998.709,193.147 998.849,196.434C999.171,203.98 997.3,203.551 994.633,210.557C994.222,211.638 993.999,211.397 986.289,222.37C984.646,224.708 984.42,224.394 982.392,226.393C979.858,228.891 980.279,229.203 977.69,231.701C977.077,232.293 976.891,232.035 969.248,238.2C968.724,238.622 968.483,238.143 961.712,241.925C954.703,245.841 954.645,245.74 952.498,246.008Z" style="fill-opacity:0.85;"/>
            <path d="M760.508,89.993C763.334,90.146 763.316,90.138 763.56,90.158C767.031,90.443 766.31,96.906 764.543,97.579C758.008,100.07 753.059,91.887 760.508,89.993Z" style="fill-opacity:0.73;"/>
            <path d="M0,400.5L0,393.5C0.261,394.067 1.309,393.952 1.571,394.518C1.671,394.735 1.025,394.665 1.46,397.505C1.556,398.136 2.106,398.811 1.826,399.385C1.514,400.026 0.313,399.859 0,400.5Z" style="fill-opacity:0.15;"/>
            <path d="M402.55,257.651C405.605,252.225 403.667,259.366 403.622,259.533C403.441,258.332 403.554,258.29 402.55,257.651Z" style="fill:rgb(61,61,61);fill-opacity:0.12;"/>
            <path d="M302.306,219.281C301.231,220.531 301.586,221.074 299.858,221.13C300.045,220.971 300.011,221.097 302.306,219.281Z" style="fill:rgb(8,8,8);fill-opacity:0.41;"/>
            <path d="M453.776,168.872C454.27,169.113 454.764,169.353 455.257,169.594L454.992,170.148C454.501,169.942 454.01,169.736 453.52,169.53L453.776,168.872Z" style="fill:rgb(129,129,129);fill-opacity:0.05;"/>
            <path d="M301.647,215.499C301.181,217.135 301.123,217.051 300.288,218.513C300.888,216.883 300.871,216.998 301.647,215.499Z" style="fill:rgb(46,46,46);fill-opacity:0.24;"/>
        </g>
    </g>
</svg>
